<svg
  xmlns="http://www.w3.org/2000/svg"
  version="1.1"
  width="1024"
  height="1024"
  viewBox="0 0 1024 1024"
  style="fill-rule: evenodd; clip-rule: evenodd; stroke-linejoin: round; stroke-miterlimit: 2">
  <g transform="matrix(0.957713,0,0,0.957713,21.8318,21.2654)">
    <path
      d="M886.581,508.446C859.64,464.531 823.759,433.518 779.115,407.806C632.206,323.054 443.082,366.833 356.6,512.25C355.91,513.406 355.216,514.545 354.522,515.712C338.573,543.291 330.218,574.604 330.308,606.463C330.308,703.555 406.646,782.876 502.472,787.721C321.261,787.721 202.194,646.233 202.194,478.346C202.098,426.969 214.862,376.386 239.323,331.206C239.438,331.091 239.438,330.859 239.555,330.744L351.292,137.248C422.672,13.746 600.95,13.746 672.329,137.248L886.581,508.446Z"
      style="fill: rgb(81, 215, 255); fill-rule: nonzero" />
  </g>
  <g transform="matrix(0.957713,0,0,0.957713,21.8318,21.2654)">
    <path
      d="M555.753,941.875C511.184,967.747 460.928,978.893 409.409,980.18L185.591,980.18C42.947,980.18 -46.191,825.785 25.07,702.286L239.6,330.72C215.139,375.9 202.099,426.968 202.195,478.344C202.195,646.23 335.729,782.875 502.473,787.719C505.586,787.95 508.702,787.95 511.81,787.95C612.019,787.95 693.312,706.665 693.312,606.46C693.358,576.211 685.826,546.433 671.406,519.843C771.1,690.557 702.431,857.248 555.753,941.875Z"
      style="fill: rgb(49, 142, 255); fill-rule: nonzero" />
  </g>
  <g transform="matrix(0.957713,0,0,0.957713,21.8318,21.2654)">
    <path
      d="M838.034,980.184L409.41,980.184C460.928,978.894 511.291,964.657 555.859,938.784C702.538,854.158 753.74,667.335 671.405,519.851C640.412,462.685 581.209,426.464 516.201,424.894C451.193,423.324 390.311,456.647 356.595,512.25C443.077,366.828 630.581,317.591 777.49,402.344C822.136,428.056 859.637,464.532 886.578,508.447L998.55,702.289C1069.82,825.788 980.673,980.184 838.034,980.184Z"
      style="fill: rgb(51, 182, 255); fill-rule: nonzero" />
  </g>
</svg>
