<svg width="165" height="24" viewBox="0 0 165 24" fill="none" xmlns="http://www.w3.org/2000/svg">
<g clip-path="url(#clip0_22173_238409)">
<path d="M22.5 11.7033C21.821 10.5952 20.8757 9.67489 19.7505 9.02613C16.0476 6.88766 11.3216 8.1301 9.14182 11.7993C9.12442 11.8285 9.10694 11.8572 9.08944 11.8866C8.68745 12.5825 8.47685 13.3726 8.47912 14.1765C8.47912 16.6263 10.4032 18.6278 12.8185 18.75C8.61575 18.6278 5.25001 15.18 5.25001 10.9438C5.2476 9.64746 5.56932 8.37113 6.18585 7.23114C6.18876 7.22825 6.18876 7.22239 6.1917 7.21948L9.00803 2.33716C10.8072 -0.779055 15.3007 -0.779055 17.0998 2.33716L22.5 11.7033Z" fill="#51D7FF"/>
<path d="M14.0789 22.9475C12.95 23.6053 11.6744 23.9673 10.3695 24H4.70063C1.08775 24 -1.16993 20.0745 0.634966 16.9346L6.06157 7.5C5.44204 8.64868 5.11874 9.93478 5.12119 11.241C5.12119 15.5095 8.50333 18.9836 12.7266 19.1067C12.8055 19.1126 12.8844 19.1126 12.9631 19.1126C15.5012 19.1126 17.5602 17.046 17.5602 14.4983C17.5613 13.7292 17.3706 12.9721 17.0053 12.2961C19.0908 16.046 17.7939 20.7959 14.0789 22.9475Z" fill="#318EFF"/>
<path d="M20.9092 24H10.3065C11.5808 23.9672 12.8266 23.6051 13.9291 22.9472C17.5575 20.7951 18.824 16.044 16.7873 12.2934C16.0207 10.8397 14.5562 9.91853 12.9481 9.87861C11.34 9.83868 9.834 10.6861 9 12.1001C11.1393 8.40194 15.7775 7.14982 19.4115 9.30513C20.5159 9.95902 21.4436 10.8866 22.11 12.0034L24.8798 16.9329C26.6427 20.0736 24.4376 24 20.9092 24Z" fill="#33B6FF"/>
<path d="M22.5 11.7033C21.821 10.5952 20.8757 9.67489 19.7505 9.02613C16.0476 6.88766 11.3216 8.1301 9.14182 11.7993C9.12442 11.8285 9.10694 11.8572 9.08944 11.8866C8.68745 12.5825 8.47685 13.3726 8.47912 14.1765C8.47912 16.6263 10.4032 18.6278 12.8185 18.75C8.61575 18.6278 5.25001 15.18 5.25001 10.9438C5.2476 9.64746 5.56932 8.37113 6.18585 7.23114C6.18876 7.22825 6.18876 7.22239 6.1917 7.21948L9.00803 2.33716C10.8072 -0.779055 15.3007 -0.779055 17.0998 2.33716L22.5 11.7033Z" fill="#51D7FF"/>
<path d="M14.0789 22.9475C12.95 23.6053 11.6744 23.9673 10.3695 24H4.70063C1.08775 24 -1.16993 20.0745 0.634966 16.9346L6.06157 7.5C5.44204 8.64868 5.11874 9.93478 5.12119 11.241C5.12119 15.5095 8.50333 18.9836 12.7266 19.1067C12.8055 19.1126 12.8844 19.1126 12.9631 19.1126C15.5012 19.1126 17.5602 17.046 17.5602 14.4983C17.5613 13.7292 17.3706 12.9721 17.0053 12.2961C19.0908 16.046 17.7939 20.7959 14.0789 22.9475Z" fill="#318EFF"/>
<path d="M20.9092 24H10.3065C11.5808 23.9672 12.8266 23.6051 13.9291 22.9472C17.5575 20.7951 18.824 16.044 16.7873 12.2934C16.0207 10.8397 14.5562 9.91853 12.9481 9.87861C11.34 9.83868 9.834 10.6861 9 12.1001C11.1393 8.40194 15.7775 7.14982 19.4115 9.30513C20.5159 9.95902 21.4436 10.8866 22.11 12.0034L24.8798 16.9329C26.6427 20.0736 24.4376 24 20.9092 24Z" fill="#33B6FF"/>
<path d="M22.5 11.7033C21.821 10.5952 20.8757 9.67489 19.7505 9.02613C16.0476 6.88766 11.3216 8.1301 9.14182 11.7993C9.12442 11.8285 9.10694 11.8572 9.08944 11.8866C8.68745 12.5825 8.47685 13.3726 8.47912 14.1765C8.47912 16.6263 10.4032 18.6278 12.8185 18.75C8.61575 18.6278 5.25001 15.18 5.25001 10.9438C5.2476 9.64746 5.56932 8.37113 6.18585 7.23114C6.18876 7.22825 6.18876 7.22239 6.1917 7.21948L9.00803 2.33716C10.8072 -0.779055 15.3007 -0.779055 17.0998 2.33716L22.5 11.7033Z" fill="#51D7FF"/>
<path d="M14.0789 22.9475C12.95 23.6053 11.6744 23.9673 10.3695 24H4.70063C1.08775 24 -1.16993 20.0745 0.634966 16.9346L6.06157 7.5C5.44204 8.64868 5.11874 9.93478 5.12119 11.241C5.12119 15.5095 8.50333 18.9836 12.7266 19.1067C12.8055 19.1126 12.8844 19.1126 12.9631 19.1126C15.5012 19.1126 17.5602 17.046 17.5602 14.4983C17.5613 13.7292 17.3706 12.9721 17.0053 12.2961C19.0908 16.046 17.7939 20.7959 14.0789 22.9475Z" fill="#318EFF"/>
<path d="M20.9092 24H10.3065C11.5808 23.9672 12.8266 23.6051 13.9291 22.9472C17.5575 20.7951 18.824 16.044 16.7873 12.2934C16.0207 10.8397 14.5562 9.91853 12.9481 9.87861C11.34 9.83868 9.834 10.6861 9 12.1001C11.1393 8.40194 15.7775 7.14982 19.4115 9.30513C20.5159 9.95902 21.4436 10.8866 22.11 12.0034L24.8798 16.9329C26.6427 20.0736 24.4376 24 20.9092 24Z" fill="#33B6FF"/>
<path fill-rule="evenodd" clip-rule="evenodd" d="M49.0405 6.76215C49.6419 6.76215 50.1324 6.5686 50.5121 6.18151C50.892 5.79443 51.0818 5.30243 51.0818 4.70564C51.0818 4.10886 50.892 3.61288 50.5121 3.21773C50.1324 2.82259 49.6419 2.625 49.0405 2.625C48.4393 2.625 47.9486 2.82259 47.5689 3.21773C47.1892 3.6129 46.9992 4.10888 46.9992 4.70564C46.9992 5.30241 47.1892 5.79438 47.5689 6.18151C47.9486 6.5686 48.4393 6.76215 49.0405 6.76215ZM41.1605 8.4072H44.2697V21.0847H41.1605V19.5363C40.3375 20.7621 39.0241 21.375 37.2203 21.375C35.4638 21.375 34.0713 20.7459 33.0428 19.4879C32.0143 18.2298 31.5 16.6492 31.5 14.746C31.5 12.8427 32.0143 11.2621 33.0428 10.004C34.0713 8.74597 35.4638 8.11694 37.2203 8.11694C39.0244 8.11694 40.3375 8.72985 41.1605 9.95564V8.4072ZM40.1398 17.3347C40.7096 16.6573 40.9945 15.7943 40.9945 14.746C40.9945 13.6976 40.7134 12.8347 40.1517 12.1572C39.5898 11.4798 38.8502 11.1411 37.9325 11.1411C37.0147 11.1411 36.2749 11.4798 35.7132 12.1572C35.1513 12.8347 34.8705 13.6976 34.8705 14.746C34.8705 15.7943 35.1513 16.6573 35.7132 17.3347C36.2749 18.0121 37.0147 18.3508 37.9325 18.3509C38.8502 18.3509 39.586 18.0122 40.1398 17.3347ZM47.3553 21.0847V8.4072H50.7257V21.0847H47.3553ZM60.8369 11.5282V8.31047L60.4336 8.28629C58.8037 8.28629 57.6327 8.87499 56.9207 10.0524V8.4072H53.8113V21.0847H57.1818V14.7701C57.1818 13.625 57.4309 12.7863 57.9295 12.254C58.4278 11.7218 59.1755 11.4556 60.1723 11.4556C60.3958 11.4575 60.6185 11.4818 60.8369 11.5282ZM67.4592 8.40725H69.3817V11.1168H67.4592V21.0847H64.0887V11.1169H62.3085V8.4072H64.0887V7.39113C64.0887 5.90725 64.4646 4.79436 65.2161 4.05243C65.9679 3.3105 67.0002 2.93951 68.3136 2.93949L69.3105 2.98788V5.93952C69.2157 5.92333 69.0415 5.91524 68.7883 5.91524C67.9023 5.91524 67.4592 6.38298 67.4592 7.31847V8.40725ZM76.8346 21.375C78.7809 21.375 80.3554 20.7379 81.558 19.4637C82.7607 18.1734 83.3619 16.6008 83.3619 14.746C83.3619 12.8911 82.7607 11.3226 81.558 10.0403C80.3554 8.75806 78.7809 8.11694 76.8346 8.11694C74.8883 8.11694 73.3138 8.75806 72.1112 10.0403C70.9085 11.3226 70.3073 12.8911 70.3073 14.746C70.3073 16.6008 70.9085 18.1693 72.1112 19.4516C73.3138 20.7339 74.8883 21.375 76.8346 21.375ZM74.556 12.1089C73.9708 12.754 73.678 13.6331 73.678 14.746C73.678 15.8589 73.9746 16.7379 74.5679 17.383C75.1615 18.0282 75.9171 18.3508 76.8348 18.3508C77.7526 18.3508 78.5082 18.0282 79.1015 17.383C79.6948 16.7379 79.9916 15.8588 79.9916 14.7459C79.9916 13.633 79.6948 12.754 79.1013 12.1089C78.5079 11.4637 77.7524 11.1411 76.8346 11.1411C75.9168 11.1411 75.1575 11.4637 74.556 12.1089ZM84.8811 14.746C84.8811 16.633 85.4666 18.2137 86.6375 19.4879C87.8242 20.7459 89.3194 21.375 91.1235 21.375C92.8956 21.375 94.2919 20.867 95.3126 19.8508C96.3333 18.8347 96.9147 17.6976 97.0572 16.4396H93.5919C93.4652 16.9879 93.1724 17.4395 92.7137 17.7944C92.2547 18.1492 91.7168 18.3266 91.0996 18.3266C90.2136 18.3266 89.5173 18 89.0109 17.3468C88.5045 16.6936 88.2513 15.8266 88.2513 14.746C88.2513 13.6653 88.5045 12.7984 89.0109 12.1452C89.5173 11.4919 90.2136 11.1653 91.0996 11.1653C91.7168 11.1654 92.2547 11.3428 92.7137 11.6976C93.1724 12.0524 93.4652 12.504 93.5919 13.0524H97.0572C96.915 11.7943 96.3333 10.6572 95.3126 9.6411C94.2919 8.62499 92.8956 8.11692 91.1235 8.11692C89.3196 8.11694 87.8283 8.75 86.6494 10.0161C85.4704 11.2823 84.8811 12.8589 84.8811 14.746ZM108.925 20.0201C107.976 20.9233 106.567 21.3749 104.7 21.3749C102.833 21.3749 101.424 20.9233 100.475 20.0201C99.5258 19.1169 99.0511 17.6653 99.0509 15.6653V8.4072H102.421V15.7137C102.421 17.4395 103.181 18.3024 104.7 18.3024C106.219 18.3024 106.979 17.4395 106.979 15.7137V8.4072H110.349V15.6653C110.349 17.6653 109.874 19.1169 108.925 20.0201ZM112.343 16.9717C112.548 19.9072 114.344 21.3749 117.731 21.3749C119.361 21.3749 120.646 20.9919 121.588 20.2257C122.529 19.4596 123 18.4878 123 17.3104C123 16.3427 122.763 15.5685 122.288 14.9878C121.813 14.4072 121.239 14.0201 120.567 13.8265C119.904 13.6352 119.231 13.4857 118.55 13.379C117.877 13.2741 117.304 13.133 116.829 12.9556C116.354 12.7782 116.117 12.4959 116.117 12.1088C116.117 11.754 116.267 11.4596 116.568 11.2257C116.868 10.9919 117.288 10.8749 117.826 10.8749C118.395 10.8749 118.842 11.02 119.167 11.3104C119.491 11.6008 119.669 11.9637 119.701 12.3991H122.952C122.889 11.2862 122.446 10.2943 121.623 9.42332C120.801 8.55234 119.542 8.11687 117.849 8.11687C116.362 8.11687 115.159 8.5201 114.242 9.32654C113.324 10.133 112.865 11.1249 112.865 12.3023C112.865 13.2378 113.102 13.9878 113.577 14.5523C114.052 15.1168 114.629 15.4959 115.31 15.6894C115.977 15.8801 116.655 16.0336 117.339 16.1491C118.011 16.262 118.585 16.4112 119.06 16.5967C119.534 16.7822 119.772 17.0685 119.772 17.4556C119.772 17.8104 119.606 18.0927 119.273 18.3023C118.941 18.512 118.459 18.6169 117.826 18.6169C117.161 18.6168 116.659 18.4596 116.318 18.1451C115.978 17.8306 115.792 17.4395 115.761 16.9717H112.343Z" fill="#3C4453"/>
<path d="M129 21.0758L135.691 2.92578H137.93L144.622 21.0758H142.245L140.421 15.8811H133.201L131.377 21.0758H129ZM136.71 5.85645L133.868 13.9567H139.754L136.912 5.85645H136.71Z" fill="#3C4453"/>
<path d="M146.731 21.0758V2.92578H153.573C156.982 2.92578 159.397 5.27786 159.397 8.72422V8.74938C159.397 12.1957 156.982 14.5981 153.573 14.5981H148.995V21.0758H146.731ZM152.995 4.93826H148.995V12.5857H152.995C155.586 12.5857 157.082 11.1643 157.082 8.77453V8.74938C157.082 6.35956 155.586 4.93826 152.995 4.93826Z" fill="#3C4453"/>
<path d="M162.034 21.0758V2.92578H164.298V21.0758H162.034Z" fill="#3C4453"/>
</g>
<defs>
<clipPath id="clip0_22173_238409">
<rect width="164.298" height="24" fill="white"/>
</clipPath>
</defs>
</svg>
