<svg width="165" height="24" viewBox="0 0 165 24" fill="none" xmlns="http://www.w3.org/2000/svg">
<g clip-path="url(#clip0_4733_1062)">
<g clip-path="url(#clip1_4733_1062)">
<path d="M41.4448 8.27643H44.5367V20.6439H41.4448V19.1333C40.6266 20.3291 39.3206 20.927 37.5269 20.927C35.7804 20.927 34.3957 20.3134 33.3729 19.0861C32.3501 17.8587 31.8387 16.3169 31.8389 14.4605C31.8389 12.6039 32.3502 11.0619 33.3729 9.83456C34.3956 8.60724 35.7803 7.99347 37.5269 7.99325C39.3206 7.99325 40.6266 8.59117 41.4448 9.787V8.27643ZM40.4299 16.9856C40.9965 16.3248 41.2797 15.4828 41.2797 14.46C41.2797 13.4371 41.0003 12.5954 40.4416 11.9349C39.8831 11.2739 39.1475 10.9434 38.2349 10.9434C37.3224 10.9434 36.5868 11.2739 36.0282 11.9349C35.4696 12.5958 35.1902 13.4377 35.1902 14.4605C35.1902 15.4833 35.4696 16.3253 36.0282 16.9861C36.5867 17.647 37.3223 17.9774 38.2349 17.9775C39.1474 17.9775 39.8791 17.647 40.4299 16.9856ZM50.7439 6.10515C50.3663 6.48279 49.8785 6.67161 49.2806 6.67161C48.6827 6.67161 48.195 6.48279 47.8173 6.10515C47.6296 5.91649 47.4826 5.69144 47.3852 5.44385C47.2878 5.19625 47.242 4.93134 47.2508 4.66542C47.2427 4.39781 47.2888 4.13133 47.3861 3.88191C47.4833 3.6325 47.63 3.40529 47.8173 3.21389C48.008 3.02157 48.2364 2.87088 48.4883 2.77136C48.7402 2.67182 49.01 2.62561 49.2806 2.63562C49.5512 2.62559 49.821 2.6718 50.0729 2.77133C50.3247 2.87087 50.5532 3.02156 50.7439 3.21389C50.931 3.40529 51.0777 3.6325 51.1751 3.88191C51.2724 4.13133 51.3184 4.39781 51.3103 4.66542C51.319 4.93132 51.2734 5.19621 51.176 5.44378C51.0786 5.69136 50.9315 5.91651 50.7439 6.10515ZM47.6048 20.6439V8.27643H50.9565V20.6439H47.6048ZM61.0107 8.18208V11.3211C60.7933 11.2758 60.572 11.2521 60.35 11.2502C59.3587 11.2502 58.6152 11.5099 58.1194 12.0291C57.6238 12.5484 57.3761 13.3666 57.3761 14.4837V20.6437H54.0245V8.27643H57.116V9.88136C57.824 8.73276 58.9884 8.15845 60.6091 8.15845L61.0107 8.18208ZM67.5956 8.27654H69.5074V10.9197H67.5956V20.6437H64.2446V10.9198H62.4734V8.27643H64.2446V7.2852C64.2446 5.8376 64.6183 4.75191 65.3658 4.02811C66.1132 3.30431 67.1398 2.94242 68.4458 2.94242L69.4371 2.98964V5.86909C69.2649 5.84912 69.0913 5.84119 68.918 5.84537C68.0368 5.84537 67.5963 6.30166 67.5963 7.21424L67.5956 8.27654ZM81.6151 19.0625C80.4193 20.3056 78.8537 20.9271 76.9183 20.9271C74.9829 20.9271 73.4174 20.3018 72.2214 19.0509C71.0256 17.7999 70.4277 16.2698 70.4277 14.4605C70.4277 12.6514 71.0255 11.121 72.2214 9.86956C73.4172 8.61869 74.9828 7.99325 76.9183 7.99325C78.8536 7.99325 80.4192 8.61869 81.6151 9.86956C82.8109 11.1205 83.4087 12.6508 83.4087 14.4605C83.4087 16.2703 82.8109 17.8042 81.6151 19.0625ZM74.6527 11.8875C74.0705 12.517 73.7794 13.3745 73.7794 14.4601C73.7794 15.5459 74.0746 16.4034 74.665 17.0328C75.2554 17.6621 76.0067 17.9768 76.919 17.9768C77.8311 17.9768 78.5825 17.6621 79.1729 17.0328C79.763 16.4033 80.0582 15.5458 80.0586 14.4601C80.0589 13.3744 79.7636 12.5169 79.1729 11.8875C78.5828 11.2581 77.8315 10.9434 76.919 10.9434C76.0064 10.9434 75.2509 11.2581 74.6527 11.8875ZM86.6659 19.0861C85.5019 17.843 84.9199 16.3012 84.9199 14.4605C84.9199 12.6199 85.506 11.0819 86.6782 9.84659C87.8504 8.61147 89.3335 7.99387 91.1272 7.99381C92.8893 7.99381 94.2779 8.48945 95.2928 9.48075C96.3077 10.4721 96.8859 11.5813 97.0275 12.8086H93.5812C93.458 12.2775 93.1482 11.8083 92.7079 11.4866C92.2462 11.1386 91.681 10.9558 91.103 10.9674C90.2219 10.9674 89.5294 11.286 89.0256 11.9233C88.5218 12.5605 88.2702 13.4063 88.2708 14.4605C88.2708 15.5147 88.5226 16.3605 89.0261 16.9978C89.5296 17.6351 90.222 17.9537 91.1034 17.9537C91.6815 17.9653 92.2467 17.7825 92.7084 17.4344C93.1484 17.1128 93.4584 16.6438 93.5816 16.1128H97.0274C96.8858 17.3401 96.3076 18.4494 95.2927 19.4406C94.2778 20.4318 92.8893 20.9275 91.1271 20.9276C89.333 20.9273 87.8459 20.3134 86.6659 19.0861ZM108.828 19.6053C107.884 20.4864 106.484 20.9269 104.627 20.9269C102.77 20.9269 101.37 20.4864 100.426 19.6053C99.4816 18.7242 99.0096 17.3081 99.0096 15.357V8.27643H102.361V15.4042C102.361 17.088 103.116 17.9298 104.627 17.9298C106.138 17.9298 106.893 17.088 106.893 15.4042V8.27643H110.244V15.357C110.244 17.3081 109.772 18.7243 108.828 19.6054L108.828 19.6053ZM117.584 20.9269C114.217 20.9269 112.431 19.4951 112.227 16.6314H115.626C115.637 16.8495 115.693 17.0631 115.788 17.2596C115.883 17.4561 116.017 17.6317 116.18 17.7762C116.519 18.0829 117.018 18.2363 117.679 18.2363C118.308 18.2363 118.788 18.134 119.119 17.9295C119.449 17.725 119.614 17.4497 119.614 17.1035C119.614 16.7258 119.378 16.4466 118.906 16.2657C118.352 16.0633 117.779 15.917 117.195 15.8289C116.515 15.7162 115.841 15.5666 115.177 15.3807C114.504 15.194 113.903 14.8071 113.454 14.2714C112.982 13.7206 112.746 12.9889 112.746 12.0763C112.746 10.9277 113.202 9.95998 114.115 9.1732C115.027 8.38642 116.223 7.99307 117.702 7.99315C119.386 7.99315 120.637 8.41799 121.455 9.26766C122.273 10.1173 122.713 11.085 122.777 12.1707H119.543C119.531 11.967 119.478 11.7679 119.386 11.5854C119.295 11.4029 119.168 11.2407 119.012 11.1086C118.69 10.8253 118.245 10.6837 117.678 10.6838C117.143 10.6838 116.726 10.7978 116.427 11.026C116.288 11.1225 116.175 11.2513 116.097 11.4014C116.019 11.5514 115.978 11.7183 115.979 11.8874C115.979 12.2651 116.215 12.5404 116.687 12.7134C117.243 12.907 117.816 13.0455 118.398 13.1266C119.075 13.2307 119.745 13.3765 120.404 13.5633C121.078 13.7554 121.676 14.1511 122.116 14.6962C122.588 15.2626 122.824 16.0178 122.824 16.9619C122.824 18.1104 122.356 19.0584 121.419 19.8059C120.483 20.5533 119.205 20.927 117.584 20.927L117.584 20.9269Z" fill="#3C4453"/>
<path d="M22.4033 11.6934C21.6997 10.5487 20.7126 9.60487 19.5374 8.95333C18.3623 8.30179 17.0389 7.96454 15.6953 7.97419C14.3516 7.98385 13.0332 8.34009 11.8676 9.00844C10.7019 9.6768 9.72845 10.6346 9.04137 11.7894C9.02419 11.8189 9.00573 11.8469 8.98856 11.8768C8.59818 12.5555 8.3883 13.3231 8.37902 14.1061C8.36974 14.8891 8.56136 15.6612 8.93555 16.349C9.30973 17.0369 9.85399 17.6173 10.5164 18.0348C11.1787 18.4525 11.9371 18.6932 12.719 18.7342C11.3884 18.694 10.0902 18.3141 8.94777 17.6308C7.80532 16.9475 6.85658 15.9834 6.19174 14.8301C5.52689 13.6768 5.16802 12.3726 5.14922 11.0416C5.13041 9.71047 5.45229 8.39667 6.0843 7.22505C6.08746 7.2221 6.08746 7.21631 6.09009 7.21315L8.90677 2.33507C10.7071 -0.778357 15.2018 -0.778357 17.0016 2.33507L22.4033 11.6934Z" fill="#51D7FF"/>
<path d="M14.0642 22.543C12.9406 23.1954 11.6707 23.5542 10.3718 23.5864H4.72957C1.13321 23.5864 -1.1144 19.6941 0.682411 16.5799L6.08434 7.22485C5.45231 8.39644 5.13037 9.71019 5.14912 11.0412C5.16789 12.3723 5.52669 13.6764 6.19146 14.8298C6.85626 15.9831 7.80493 16.9473 8.94732 17.6306C10.0897 18.3141 11.3879 18.6939 12.7185 18.7342C12.797 18.7402 12.8754 18.7402 12.954 18.7402C13.7469 18.7394 14.5261 18.5329 15.2153 18.1407C15.9044 17.7486 16.4799 17.1842 16.8856 16.5028C17.2911 15.8215 17.5128 15.0464 17.5288 14.2537C17.545 13.4609 17.355 12.6774 16.9775 11.9802C17.9761 13.7706 18.2304 15.8821 17.6853 17.8585C17.1402 19.835 15.8394 21.5175 14.0642 22.543Z" fill="#318EFF"/>
<path d="M21.18 23.5871H10.3735C11.7156 23.5505 13.0254 23.1683 14.1767 22.4776C15.3279 21.7871 16.2816 20.8112 16.9456 19.6443C17.6096 18.4776 17.9614 17.1592 17.9671 15.8167C17.9729 14.4742 17.6323 13.1529 16.9783 11.9805C16.5942 11.2726 16.0303 10.6785 15.3432 10.2584C14.6561 9.83814 13.8703 9.60666 13.0653 9.58726C12.2601 9.56785 11.4642 9.7612 10.7577 10.1478C10.0512 10.5344 9.45921 11.1006 9.0415 11.7891C9.72838 10.6342 10.7018 9.67606 11.8675 9.00754C13.0331 8.33901 14.3516 7.98269 15.6953 7.9731C17.0392 7.9635 18.3627 8.30093 19.5377 8.95273C20.7128 9.60454 21.6998 10.5486 22.4031 11.6937L25.2268 16.5809C27.0233 19.6946 24.776 23.5871 21.18 23.5871Z" fill="#33B6FF"/>
</g>
<path d="M128.823 20.9249L135.514 2.7749H137.753L144.445 20.9249H142.067L140.244 15.7302H133.024L131.2 20.9249H128.823ZM136.533 5.70557L133.69 13.8058H139.577L136.734 5.70557H136.533Z" fill="#3C4453"/>
<path d="M146.553 20.9249V2.7749H153.396C156.805 2.7749 159.219 5.12698 159.219 8.57334V8.5985C159.219 12.0449 156.805 14.4473 153.396 14.4473H148.818V20.9249H146.553ZM152.817 4.78738H148.818V12.4348H152.817C155.408 12.4348 156.905 11.0135 156.905 8.62365V8.5985C156.905 6.20869 155.408 4.78738 152.817 4.78738Z" fill="#3C4453"/>
<path d="M161.857 20.9249V2.7749H164.121V20.9249H161.857Z" fill="#3C4453"/>
</g>
<defs>
<clipPath id="clip0_4733_1062">
<rect width="164.121" height="23.7" fill="white"/>
</clipPath>
<clipPath id="clip1_4733_1062">
<rect width="122.843" height="23.7" fill="white"/>
</clipPath>
</defs>
</svg>
